# xmcd
#
# Track frame offsets:
#	150
#	15259
#	29759
#	41309
#	54090
#	66409
#	76972
#	88577
#	99010
#	110723
#	122573
#	138084
#	151967
#	170086
#	183136
#	196593
#	212099
#	224999
#	237946
#	254459
#
# Disc length: 3577 seconds
#
# Revision: 0
# Processed by: cddbd v1.5.2PL0 Copyright (c) Steve Scherf et al.
# Submitted via: EZCDAudioConverter 1.1.0.1
#
DISCID=0a0df714
DTITLE=The Country Dance Kings - Great Country Line Dance Hits
DYEAR=2009
DGENRE=Country
TTITLE0=Oh Girl
TTITLE1=Bubba Shot The Jukebox
TTITLE2=What You Gonna Do With A Cowboy
TTITLE3=My Next Broken Heart
TTITLE4=What Part Of No
TTITLE5=One More Payment
TTITLE6=I Want You Bad
TTITLE7=Against The Grean
TTITLE8=Boom! It Was Over
TTITLE9=The Whiskey Ain't Working
TTITLE10=Achy Breaacky Heart
TTITLE11=Boot Scootin' Boogie
TTITLE12=All My Rowdy Friends
TTITLE13=Cadillac Ranch
TTITLE14=Super Love
TTITLE15=One Step Forward
TTITLE16=Dumas Walker
TTITLE17=Love's Got A Hold On You
TTITLE18=I Feel Lucky
TTITLE19=Honky Tonk Blues
EXTD=
EXTT0=
EXTT1=
EXTT2=
EXTT3=
EXTT4=
EXTT5=
EXTT6=
EXTT7=
EXTT8=
EXTT9=
EXTT10=
EXTT11=
EXTT12=
EXTT13=
EXTT14=
EXTT15=
EXTT16=
EXTT17=
EXTT18=
EXTT19=
PLAYORDER=
